<svg xmlns="http://www.w3.org/2000/svg" viewBox="0 0 420 390" role="img" aria-label="VerdeVegan">
  <rect width="420" height="390" fill="#ffffff"/>
  <g fill="#3b7556" transform="translate(0 -18)">
    <path d="M210 47c-28 0-52 15-64 38 14 2 28 9 39 20-23-13-56-22-78-4-20 16-22 49-6 69 10 13 24 18 39 18v39c0 10 31 18 70 18s70-8 70-18v-39c15 0 29-5 39-18 16-20 14-53-6-69-16-13-38-13-58-5-6-28-25-49-45-49z"/>
    <path d="M152 235c11 15 39 25 58 25s47-10 58-25v16c-16 13-39 21-58 21s-42-8-58-21z"/>
    <path d="M145 255c20 17 45 25 65 25s45-8 65-25v12c-20 18-45 27-65 27s-45-9-65-27z"/>
  </g>
  <g transform="translate(181 86)">
    <path d="M31 15c-39 31-35 69-4 85 32-18 41-52 4-85z" fill="#ffffff"/>
    <path d="M29 29v77" fill="none" stroke="#3b7556" stroke-width="5" stroke-linecap="round"/>
    <path d="M29 58 15 43M29 75 47 54" fill="none" stroke="#3b7556" stroke-width="5" stroke-linecap="round"/>
  </g>
  <text x="210" y="352" text-anchor="middle" font-family="Arial, Helvetica, sans-serif" font-size="44" font-weight="800" fill="#3b7556">VerdeVegan</text>
</svg>
